<svg xmlns="http://www.w3.org/2000/svg" data-ember-extension="1" data-name="Calque 2" viewBox="0 0 68.32 70"><g data-name="Calque 2"><path d="M61.46 0c3.79 0 6.86 3.07 6.86 6.86s-3.07 6.86-6.86 6.86-6.86-3.07-6.86-6.86S57.67 0 61.46 0m6.86 13.79-16.03 5.53v6.58l4.48-1.61v18.27c0 5.32-6.02 3.64-7.84 2.24-.56-.42-4.69-3.29-4.69-3.29C48.3 40.18 54.6 35 51.52 28c-3.92-7.14-10.78-4.83-10.78-4.83l-18.83 6.58v6.51l2.73-.98v9.03L12.46 32.97 0 37.38v6.51l3.78-1.4v18.48L.07 62.3V70l14.21-4.97V48.86l8.96 8.4v9.45l22.4-7.84v-5.39c2.87 3.22 9.17 3.71 13.23 2.52 5.04-1.47 9.45-4.69 9.45-11.2zM40.11 36.33c-1.33.49-5.25 1.96-5.25 1.96v-6.23s2.73-.98 4.06-1.4 2.52.84 2.59 2.17c.07 1.05.28 2.73-1.4 3.5" style="fill:#fe0000;stroke-width:0"/><path d="M24.85 47.95v16.52l4.55-1.54V46.34zm14.98 5.11c2.17-2.1 4.34-4.13 4.34-7.14 0-3.99-3.22-4.41-6.58-3.22-4.27 1.47-6.86 4.48-7 9.52l4.34-1.54c0-1.61.49-3.43 2.38-4.13.98-.35 1.96-.14 1.96 1.05 0 2.87-4.34 5.53-7.07 9.45-1.33 1.89-1.61 3.43-1.61 5.39l13.37-4.69v-4.06l-7.56 2.66c.98-.98 2.24-2.1 3.43-3.29" style="fill:#fff;stroke-width:0"/></g></svg>