<svg xmlns="http://www.w3.org/2000/svg" width="1322.667" height="384" data-ember-extension="1" viewBox="0 0 1240 360"><rect width="1240" height="360" x="2.573" y=".527" ry="0" style="opacity:1;vector-effect:none;fill:#000;fill-opacity:1;stroke:#000;stroke-width:4.31763983;stroke-linecap:butt;stroke-linejoin:miter;stroke-miterlimit:4;stroke-dasharray:none;stroke-dashoffset:0;stroke-opacity:1"/><path d="M-126.654 214.541v-161.5h861v323h-861Z" style="fill:#f7e703;stroke-width:.78929752" transform="translate(493.934 -34.014)"/><path d="M9.863 92.967c-7.867-.03-15.195.694-21.465 2.204-28.072 6.763-47.475 25.747-54.817 53.634-2.797 10.625-3.038 30.966-.478 40.42 4.196 15.492 12.606 26.046 26.194 32.875 4.347 2.185 17.195 6.959 28.553 10.607 33.42 10.736 39.811 14.923 40.659 26.64 1.448 20.025-21.91 29.571-49.276 20.138-9.508-3.277-14.776-6.172-24.175-13.286-3.64-2.755-7.184-4.79-7.878-4.525-1.477.567-24.48 43.653-24.48 45.854 0 .82 2.586 3.079 5.749 5.017 18.677 11.447 39.378 18.515 60.75 20.74 15.994 1.666 37.495-.809 51.528-5.93C74.697 314.956 90.7 291.4 90.7 253.79c0-14.908-1.075-20.62-5.74-30.485-7.925-16.754-23.611-26.985-56.76-37.019C2 178.356-5.082 173.634-6.06 163.44c-.63-6.552 2.37-12.297 8.431-16.14 12.152-7.707 30.042-5.912 47.218 4.738 5.212 3.232 7.81 4.315 8.82 3.675.787-.499 6.207-10.291 12.043-21.76 8.312-16.338 10.385-21.207 9.576-22.49-1.384-2.193-16.233-8.516-28.71-12.225-13.728-4.08-28.342-6.222-41.454-6.271m348.75 5.339c-29.306 0-31.918.138-32.772 1.749-2.845 5.36-87.098 226.513-86.602 227.316.367.594 12.365.862 31.278.7l30.683-.266 7.5-18.529c4.125-10.19 7.863-19.078 8.308-19.75 1.187-1.79 81.026-1.762 82.417.03.534.687 3.587 8.45 6.784 17.25 3.198 8.8 6.428 17.238 7.178 18.75l1.364 2.748h30.506c24.855 0 30.602-.251 31.029-1.364.514-1.34-82.92-224.937-84.848-227.385-.75-.954-8.543-1.25-32.825-1.25zm-144.09.185c-9.946-.008-21.848.012-35.934.059l-77.39.256v49.999l23.5.501 23.5.5.247 87.999c.137 48.4.463 88.57.725 89.266.373.989 6.869 1.207 29.753 1l29.275-.266.5-89 .5-88.999 23.5-.26c20.665-.228 23.65-.462 24.75-1.94 1.88-2.53 1.78-46.617-.11-48.185-.742-.616-12.976-.904-42.815-.93m285.676.315-.258 113.5c-.141 62.425-.042 114.062.22 114.75.365.96 7.096 1.249 28.973 1.249 27.15 0 28.544-.091 29.53-1.934.666-1.242 1.035-16.45 1.035-42.5 0-22.312.339-40.566.751-40.566.413 0 12 17.405 25.75 38.676 13.75 21.27 26.24 40.395 27.755 42.499l2.756 3.825h35.995c28.132 0 35.988-.272 35.988-1.25 0-.687-15.544-21.454-34.534-46.149-18.99-24.694-34.38-45.342-34.199-45.884s3.699-2.176 7.817-3.63c9.997-3.528 15.516-6.894 22.011-13.421 26.488-26.62 24.64-74.97-3.89-101.825-7.882-7.419-16.38-11.968-28.2-15.093-8.314-2.2-9.686-2.247-63-2.247zm71.08 46.036c7.47.025 12.762.594 16.747 1.8 14.241 4.31 22.124 20.759 17.14 35.764-2.265 6.822-9.19 13.898-16.001 16.355-3.299 1.19-9.056 1.959-17.152 2.287l-12.187.495-.313-25.87c-.173-14.227-.053-26.993.265-28.368.575-2.482.66-2.5 11.501-2.463m-212.51 27.686a.9.9 0 0 1 .243.05c1.812.603 23.547 68 22.407 69.477-.721.934-6.628 1.25-23.374 1.25-19.267 0-22.49-.216-23-1.541-.325-.849 3.804-14.462 9.176-30.251 12.009-35.298 13.335-39.022 14.548-38.985" style="fill:#040404;stroke-width:.99999994" transform="translate(493.934 -34.014)"/><path d="M211.288 51.336c22.169.258 44.62 4.977 62.899 13.997 7.479 3.69 13.334 7.878 13.423 9.602.02.39-2.1 12.123-4.711 26.072-3.02 16.135-5.222 25.544-6.046 25.86-.713.274-4.33-1.33-8.038-3.565-29.926-18.035-66.92-19.79-91.742-4.352-18.913 11.763-29.5 32.396-29.5 57.493 0 16.838 5.863 31.565 17 42.702 10.75 10.751 24.286 16.364 42.46 17.608 13.455.92 29.11-2.245 48.276-9.765 2.113-.83 3.577-.932 4.217-.292 1.38 1.38-7.682 53.38-9.703 55.677-2.115 2.404-10.408 5.343-21.962 7.782-11.06 2.335-36.818 3.443-46.857 2.015-46.564-6.625-79.733-33.38-92.816-74.867-4.434-14.062-5.921-26.53-5.363-44.998.435-14.386.921-18.229 3.554-28.16 5.417-20.43 14.74-38.907 26.433-52.38 9.627-11.093 27.957-23.977 43.514-30.587 16.061-6.824 35.402-10.07 54.962-9.842" style="fill:#fff;stroke-width:.99999994"/></svg>