<svg xmlns="http://www.w3.org/2000/svg" width="650" height="122.851" data-ember-extension="1" viewBox="0 0 171.979 32.504"><path d="M173.125 137.527a1.82 1.82 0 1 1-3.64 0 1.82 1.82 0 0 1 3.64 0" style="fill:#eb0032;fill-opacity:1;fill-rule:nonzero;stroke:none;stroke-width:.35277775" transform="matrix(3.24137 0 0 3.24137 -413.876 -424.516)"/><path d="M177.404 132.756c.737 0 1.266.633 1.266 1.307 0 .481-.209 1.018-.96 1.857l-3.423 3.584v1.355h6.456v-1.651h-3.661l2.214-2.38c.654-.743 1.228-1.61 1.228-2.765 0-1.747-1.423-2.958-3.12-2.958-1.552 0-3.072 1.101-3.006 3.132h1.753c0-.192.01-.363.047-.513.176-.703.728-.968 1.206-.968M146.79 140.859v-6.663h1.717v.536a2.94 2.94 0 0 1 1.882-.673c.92 0 1.758.412 2.308 1.071.44.522.686 1.196.686 2.336v3.393h-1.786v-3.53c0-.66-.15-1.004-.398-1.25-.233-.234-.59-.372-1.003-.372-.755 0-1.373.481-1.62.825v4.327zM165.97 136.669c-.054-.59-.59-1.168-1.318-1.168-.742 0-1.346.564-1.429 1.168zm1.663 3.132c-.646.77-1.703 1.195-2.734 1.195-1.992 0-3.489-1.374-3.489-3.462 0-1.854 1.264-3.475 3.242-3.475 1.84 0 3.146 1.552 3.146 3.407 0 .178-.014.357-.041.508h-4.616c.096.934.852 1.58 1.8 1.58.755 0 1.36-.426 1.675-.77zM143.551 136.532a2.05 2.05 0 0 0-1.648-.824c-1.044 0-1.717.865-1.717 1.826 0 1.044.756 1.814 1.758 1.814.673 0 1.264-.33 1.607-.825zm1.786 4.327h-1.717v-.536a2.78 2.78 0 0 1-1.854.673c-.99 0-1.924-.44-2.514-1.126a3.58 3.58 0 0 1-.852-2.336c0-1.964 1.456-3.475 3.27-3.475a3.05 3.05 0 0 1 1.95.673v-.536h1.717zM161.001 139.499c-.782 1.044-1.772 1.497-3.022 1.497-2.06 0-3.571-1.539-3.571-3.461 0-1.938 1.552-3.476 3.585-3.476 1.154 0 2.184.536 2.802 1.332l-1.264 1.113c-.357-.467-.892-.797-1.538-.797-1.03 0-1.8.81-1.8 1.828 0 1.043.756 1.812 1.841 1.812.728 0 1.305-.439 1.594-.878zM138.125 135.776c-.123-.041-.384-.069-.645-.069-.783 0-1.401.564-1.621.962v4.19h-1.786v-6.663h1.717v.673c.399-.494 1.127-.81 1.937-.81.261 0 .412.027.604.055zM132.974 132.617a2.3 2.3 0 0 0-.536-.07c-.44 0-.783.125-1.002.386-.152.192-.248.44-.248 1.057v.206h2.06v1.511h-2.06v5.152h-1.786v-5.152h-1.717v-1.51h1.717v-.275c0-1.072.248-1.717.715-2.171s1.167-.783 2.074-.783c.357 0 .687.028 1.058.124z" style="fill:#232323;fill-opacity:1;fill-rule:nonzero;stroke:none;stroke-width:.35277775" transform="matrix(3.24137 0 0 3.24137 -413.876 -424.516)"/></svg>