<svg xmlns="http://www.w3.org/2000/svg" width="650" height="122.485" data-ember-extension="1" viewBox="0 0 171.979 32.408"><path d="M127.688 112.581a1.82 1.82 0 1 1-3.639 0 1.82 1.82 0 0 1 3.639 0" style="fill:#0082e6;fill-opacity:1;fill-rule:nonzero;stroke:none;stroke-width:.35277775" transform="translate(-265.804 -342.63)scale(3.2317)"/><path d="m133.24 109.538 1.744-2.143v-1.099h-5.838v1.649h3.142l-1.727 2.043v1.185a2.6 2.6 0 0 1 1.154-.275c1.072 0 1.896.756 1.896 1.759 0 1.03-.893 1.744-1.8 1.744-.728 0-1.387-.398-1.786-.961l-1.332 1.112c.852.962 1.992 1.498 3.187 1.498 1.992 0 3.585-1.36 3.585-3.393 0-1.456-.906-2.61-2.225-3.119M101.353 115.912v-6.662h1.718v.536a2.94 2.94 0 0 1 1.881-.674c.92 0 1.758.413 2.308 1.072.44.522.687 1.195.687 2.335v3.393h-1.786v-3.53c0-.66-.151-1.003-.398-1.25-.234-.234-.591-.371-1.003-.371-.756 0-1.374.48-1.621.824v4.327zM120.534 111.723c-.055-.591-.59-1.168-1.318-1.168-.742 0-1.346.563-1.429 1.168zm1.663 3.131c-.646.77-1.704 1.196-2.734 1.196-1.992 0-3.49-1.374-3.49-3.462 0-1.855 1.265-3.475 3.243-3.475 1.84 0 3.145 1.552 3.145 3.406 0 .179-.013.357-.04.508h-4.616c.096.935.851 1.58 1.8 1.58.755 0 1.36-.426 1.675-.769zM98.115 111.585a2.05 2.05 0 0 0-1.649-.824c-1.043 0-1.717.866-1.717 1.827 0 1.044.756 1.813 1.759 1.813.673 0 1.263-.33 1.607-.824zm1.786 4.327h-1.717v-.535a2.8 2.8 0 0 1-1.855.673c-.989 0-1.923-.44-2.514-1.127a3.58 3.58 0 0 1-.852-2.335c0-1.964 1.457-3.475 3.27-3.475a3.05 3.05 0 0 1 1.95.673v-.536h1.718zM115.565 114.552c-.783 1.044-1.772 1.498-3.022 1.498-2.06 0-3.572-1.539-3.572-3.462 0-1.937 1.552-3.475 3.586-3.475 1.153 0 2.184.535 2.802 1.332l-1.264 1.113c-.357-.467-.893-.797-1.538-.797-1.03 0-1.8.81-1.8 1.827 0 1.044.756 1.813 1.84 1.813.729 0 1.306-.44 1.594-.879zM92.689 110.83c-.124-.042-.385-.07-.646-.07-.782 0-1.4.564-1.62.962v4.19h-1.786v-6.662h1.717v.673c.398-.495 1.126-.81 1.937-.81.26 0 .412.027.604.055zM87.537 107.67a2.3 2.3 0 0 0-.535-.069c-.44 0-.783.124-1.003.385-.151.192-.247.44-.247 1.058v.206h2.06v1.51h-2.06v5.152h-1.786v-5.151h-1.717v-1.511h1.717v-.275c0-1.071.247-1.717.714-2.17s1.168-.783 2.074-.783c.358 0 .688.027 1.058.124z" style="fill:#232323;fill-opacity:1;fill-rule:nonzero;stroke:none;stroke-width:.35277775" transform="translate(-265.804 -342.63)scale(3.2317)"/></svg>