<svg xmlns="http://www.w3.org/2000/svg" xml:space="preserve" data-ember-extension="1" viewBox="0 0 595.28 318.31"><path d="M559.41 25.78c-2.16-2.78-6.48-7.41-14.21-12.36-15.13-9.57-28.1-10.8-44.78-10.8H430.3l-49.1 218.03h54.04l16.37-71.95h23.81c14.51 0 27.17-.62 41.07-4.63 13.28-4.02 22.24-10.51 26.56-13.9 26.87-21 29.34-50.34 29.34-62.38-.01-22.25-7.42-35.22-12.98-42.01m-56.52 75.66c-8.65 6.79-16.99 8.03-27.48 8.03h-14.85L476 41.53h8.98c11.73 0 23.16 2.16 29.34 13.59 3.09 5.87 3.4 12.35 3.4 14.51 0 11.74-5.88 24.71-14.83 31.81M360.49 169.83s-22.48 4.25-44.56-2.63c-22.07-6.88-37.69-27.5-33.43-55.65 4.69-28.86 24.19-49.34 48.65-57.49 24.45-8.15 46.01-2.49 56.85 1.2l11.11-46.25C385.01 3.3 370.75 0 354.63 0c-29.64 0-61.79 12.86-85.83 34.11-23.2 20.69-38.58 48.36-43.05 77.15-5.04 31.32 1.12 58.72 20.96 79.69 18.73 19.85 45.02 31.03 74.36 31.03 9.82 0 18.53-1.4 27.78-3.64zM198.71 2.61h-54.27L95.38 220.45h103.8l10.24-44.34h-49.85zM31.08 266.35l4.27 51.96H24.4l-.56-8.75h-10.4l-3.25 8.75H0l20.26-51.96zm-7.86 21.22.07-7.86h-.14l-2.34 7.86-4.41 13.85h7.24zM67.19 278.06c-1.72-1.79-4.07-3.31-6.9-3.31-3.16 0-5.45 1.93-5.99 5.1-1.31 8.55 14.27 9.03 11.99 23.08-1.44 9.24-7.85 16.21-17.5 16.21-2.89 0-6.34-.9-8.41-2.63l1.58-9.79c2.14 1.65 4.28 2.76 7.31 2.76 3.31 0 6.27-2.2 6.82-5.65.62-4-2.27-5.52-4.83-7.59-5.3-4-8.35-7.85-7.17-15.43 1.31-8.2 7.17-15.3 15.99-15.3 3.31 0 6.14.89 8.68 2.55zM97.51 278.06c-1.72-1.79-4.07-3.31-6.9-3.31-3.16 0-5.45 1.93-5.99 5.1-1.31 8.55 14.27 9.03 11.99 23.08-1.44 9.24-7.85 16.21-17.5 16.21-2.89 0-6.34-.9-8.41-2.63l1.58-9.79c2.14 1.65 4.28 2.76 7.31 2.76 3.31 0 6.28-2.2 6.82-5.65.62-4-2.27-5.52-4.83-7.59-5.31-4-8.34-7.85-7.17-15.43 1.31-8.2 7.17-15.3 15.99-15.3 3.31 0 6.14.89 8.68 2.55zM129.01 266.35l-1.51 9.64h-10.42l-1.78 11.31h9.15l-1.51 9.64h-9.16l-1.87 11.72h10.55l-1.51 9.65h-20.82l8.2-51.96zM151.34 266.35l.2 30.66h.14l8.96-30.66h13.79l-2.76 51.96h-10.55l3.45-37.42h-.14l-3.65 12.82-8.34 24.6h-7.93l-1.1-24.88.14-11.58.13-.96h-.13l-7.45 37.42h-11.03l12.76-51.96zM176.9 318.31l8.2-51.96h10.06c4 0 7.44.13 10.33 2.82 3.03 2.76 4.14 7.37 3.45 11.71-.76 4.62-3.03 8.13-7.3 10.76 4 2.07 5.23 7.58 4.54 12.06-1.65 10.27-9.93 14.61-19.3 14.61zm13.85-22.67-2.21 14.06c4.07.2 6.97-2.82 7.66-7.16.69-4.07-1.38-7.04-5.45-6.9m3.31-20.68-2.07 12.69c3.86 0 6.62-2.63 7.24-6.55.55-3.8-1.24-6.34-5.17-6.14M228.38 266.35l-6.68 42.31h10.75l-1.53 9.65H209.9l8.21-51.96zM264.49 266.35l-1.51 9.64h-10.41l-1.78 11.31h9.17l-1.52 9.65h-9.17l-1.86 11.71h10.55l-1.52 9.65h-20.82l8.2-51.97h20.67zm.42-12.28-10.4 9.51-4.34-2.76 8.19-9.92zM291.51 266.35l-1.52 9.64h-10.41l-1.79 11.31h9.16l-1.51 9.64h-9.17l-1.86 11.72h10.55l-1.52 9.65h-20.82l8.21-51.96zM324.58 266.35l7.86 31.36.2-.14c-.27-2.47 0-5.16.42-7.85l3.65-23.36h10.27l-8.2 51.96h-9.72l-7.73-31.36-.13.14-.34 5.23-.27 2.14-3.79 23.84h-10.27l8.2-51.96zM374 266.35l4.27 51.96h-10.95l-.56-8.75h-10.4l-3.25 8.75h-10.19l20.26-51.96zm-7.86 21.22.07-7.86h-.14l-2.34 7.86-4.41 13.85h7.24zM410.66 266.35l-1.52 9.64h-8.13l-6.69 42.32h-10.27l6.69-42.32h-8.07l1.52-9.64zM425.61 266.35l-8.2 51.96h-10.27l8.2-51.96zM463.52 292.33c-3.1 19.5-13.38 26.81-22.54 26.81s-17.09-7.31-13.98-26.81c3.1-19.5 13.29-26.81 22.46-26.81 9.16-.01 17.16 7.31 14.06 26.81m-21.02 17.3c6.82 0 9.37-13.16 10.06-17.3.69-4.61 2.21-17.3-4.61-17.3s-9.31 12.69-10 17.3c-.69 4.14-2.28 17.3 4.55 17.3M482.88 266.35l7.86 31.36.2-.14c-.27-2.47 0-5.16.42-7.85l3.65-23.36h10.27l-8.2 51.96h-9.72l-7.73-31.36-.13.14-.34 5.23-.27 2.14-3.79 23.84h-10.27l8.2-51.96zM532.29 266.35l4.27 51.96h-10.95l-.56-8.75h-10.4l-3.25 8.75h-10.19l20.26-51.96zm-7.85 21.22.07-7.86h-.14l-2.34 7.86-4.41 13.85h7.24zM559.17 266.35l-6.68 42.31h10.75l-1.53 9.65h-21.02l8.21-51.96zM595.28 266.35l-1.52 9.64h-10.41l-1.78 11.31h9.16l-1.51 9.64h-9.17l-1.87 11.72h10.55l-1.51 9.65H566.4l8.2-51.96z"/></svg>