<svg xmlns="http://www.w3.org/2000/svg" width="709" height="709" data-ember-extension="1" version="1.2"><style>.s1{fill:#fff}</style><g id="Calque 1"><g id="&lt;Group&gt;"><path id="&lt;Path&gt;" d="M2.8 4.3h702.4v702H2.8z" style="fill:#02399e"/><path id="&lt;Compound Path&gt;" fill-rule="evenodd" d="M707.8 709H.2V1.7h707.6zM5.5 703.7h697V6.9H5.5z" class="s1"/></g><path d="M568.5 552.6h81.1v81h-81.1z" class="s1"/><path fill-rule="evenodd" d="M690.8 87.4v240.5h-70.1V173.6h-.7l-41.8 154.3h-55.3l-41.7-154.3h-.7v154.3h-70.1V144.6H306.1V181H374v55.3h-67.8v91.6h-74.1v-48.3c-11.7 31.7-45.2 48.3-79.6 48.3H16V87.4h131.8c63.4 0 76.9 35.6 76.9 60.2 0 24.3-11.8 37.5-29.7 47.2 15.4 5.3 29.9 15.7 37.1 33.9V87.4h283.8l34.4 141.5h.6l34.4-141.5zM90 181h39.3c15.5 0 25.3-4.4 25.3-19.9 0-12.1-10.2-16.5-25.3-16.5H90zm72.6 66.7c0-14.1-8.4-21.9-25.9-21.9H90.2v44.8h43.4c15.6 0 29-4.3 29-22.9" class="s1"/><path d="m581.4 355-87 278.6h-96.1l-61.8-207.2h-63.1v207.2h-85.9V426.4h-70.2V355h284.5l45.7 169h.8l44.8-169z" class="s1"/></g></svg>