<svg xmlns="http://www.w3.org/2000/svg" width="500" height="256" data-ember-extension="1" version="1.0"><path d="M942.38 142.458h2.382z" style="fill:#000;fill-rule:nonzero;stroke:none" transform="translate(-332.745 -279.91)"/><path d="M944.762 141.565v.248z" style="fill:#de6a06;fill-rule:nonzero;stroke:none" transform="translate(-332.745 -279.91)"/><path d="M470.538 631.805h417.071v213.58H470.538z" style="opacity:1;fill:#000;fill-opacity:1;fill-rule:nonzero;stroke:none;stroke-width:.60000002;stroke-linecap:round;stroke-linejoin:round;stroke-miterlimit:4;stroke-dasharray:none;stroke-dashoffset:0;stroke-opacity:1" transform="matrix(1.19884 0 0 1.19861 -564.1 -757.289)"/><path d="M684.461 642.421H876.76v192.196H684.461z" style="opacity:1;fill:#fff;fill-opacity:1;fill-rule:nonzero;stroke:none;stroke-width:.60000002;stroke-linecap:round;stroke-linejoin:round;stroke-miterlimit:4;stroke-dasharray:none;stroke-dashoffset:0;stroke-opacity:1" transform="matrix(1.19884 0 0 1.19861 -564.1 -757.289)"/><path d="M618.52 797.404a6.9 6.9 0 0 1-.916 2.547s-.776.748-1.941 1.108c-17.527 7.06-36.91 4.679-36.91 4.679-31.448-3.378-51.36-22.648-57.793-47.454-9.457-37.182 9.29-63.567 13.865-69.243 11.01-13.206 28.259-22.62 45.23-24.834 21.576-3.018 37.549 2.021 44.15 4.236 0 0 7.237 2.27 12.645 5.952 2.745 1.828 3.133 2.547 3.133 2.547s.167.388-.582 3.212l-5.103 26.634c-.194 1.107-.86 1.661-.86 1.661s-.36.194-2.939-1.467c-16.306-11.545-35.385-10.161-35.385-10.161-14.504.914-31.476 8.527-36.523 27.741-4.492 17.055.194 31.34 10.344 39.84 6.905 6.064 17.637 9.081 28.924 8.555 12.285-.913 22.102-5.786 21.381-5.426 0 0 .527-.194 1.11-.36 2.55-1.274 3.105-1.107 3.105-1.107s.555.553.167 2.214z" style="fill:#fff;fill-rule:nonzero;stroke:none" transform="matrix(1.19884 0 0 1.19861 -564.1 -757.289)"/><g style="fill:#000"><path d="M447.602 318.027a104 104 0 0 0-8.065-.162c-38.125.774-43.857 24.492-45.193 35.076-1.74 13.779 12.041 44.638 52.728 43.373h1.66c40.687 1.265 54.467-29.594 52.727-43.373-1.336-10.584-7.068-34.302-45.193-35.076a104 104 0 0 0-8.065.162z" style="fill:#000;fill-rule:evenodd;stroke:none;stroke-width:1px;stroke-linecap:butt;stroke-linejoin:miter;stroke-opacity:1" transform="matrix(1.19884 0 0 1.19861 -165.192 -264.767)"/><path d="M780.914 735.118c2.535.151 4.934.198 7.205.15 34.06-.718 39.181-22.741 40.375-32.57 1.554-12.794-10.758-41.449-47.107-40.274h-1.483c-36.35-1.175-48.66 27.48-47.106 40.274 1.194 9.829 6.315 31.852 40.376 32.57 2.27.048 4.669.001 7.204-.15z" style="fill:#000;fill-rule:evenodd;stroke:none;stroke-width:1px;stroke-linecap:butt;stroke-linejoin:miter;stroke-opacity:1" transform="matrix(1.19884 0 0 1.19861 -564.1 -757.289)"/></g><g style="fill:#fff" transform="matrix(1.19884 0 0 1.19861 -564.1 -757.289)"><ellipse cx="780.962" cy="702.249" rx="15.19" ry="14.606" style="opacity:1;fill:#fff;fill-opacity:1;fill-rule:nonzero;stroke:none;stroke-width:3;stroke-linecap:round;stroke-linejoin:round;stroke-miterlimit:4;stroke-dasharray:none;stroke-dashoffset:0;stroke-opacity:1"/><ellipse cx="780.962" cy="762.074" rx="16.475" ry="15.774" style="opacity:1;fill:#fff;fill-opacity:1;fill-rule:nonzero;stroke:none;stroke-width:3;stroke-linecap:round;stroke-linejoin:round;stroke-miterlimit:4;stroke-dasharray:none;stroke-dashoffset:0;stroke-opacity:1"/></g></svg>