<svg xmlns="http://www.w3.org/2000/svg" width="500" height="125" data-ember-extension="1" version="1.0"><path d="M832.745 410.91v125h-500v-125z" style="fill:#000;fill-rule:nonzero;stroke:none" transform="translate(-332.745 -410.91)"/><path d="M813.226 479.75s-.097.21-.435.21h-26.966c-.435 0-.645.21-.645.21s-.322.112-.322.643v28.74c0 .434-.21.53-.21.53s-.113.226-.435.226h-21.437c-.306 0-.532-.225-.532-.225s-.113-.097-.113-.628V480.7c0-.306-.258-.53-.258-.53s-.16-.21-.435-.21h-27.675c-.531 0-.628-.113-.628-.113s-.21-.209-.21-.853v-21.031c0-.258.21-.531.21-.531s.097-.097.322-.097h28.255c.226 0 .226-.113.226-.113s.193-.112.193-.321v-25.184c0-.306.113-.53.113-.53s.226-.114.854-.114h21.018c.42 0 .532.113.532.113s.21.225.21.644v25.28h27.465c.693 0 .903.112.903.112s.322.113.322.74v21.258c0 .209-.322.53-.322.53m-83.67 29.61c-.096.627-.209.836-.209.836s-.113.225-.645.225h-43.47c-1.257 0-1.596-.337-1.596-.337s-.21-.419-.113-1.368l10.783-74.81c.113-.902.323-1.223.323-1.223h20.905c.532 0 .693.096.693.096s.113.338 0 .757l-8.107 58.46c-.113.628.21.692.21.692s.209.113 1.079.113h21.485c.468 0 .629.193.629.193s.113.113.113.644zm-55.397 1.158h-19.31c-.419.21-.757-.21-.757-.21s-.097-.112-.21-.755l-2.563-11.924c-.21-.58-.419-.902-.419-.902s-.532-.321-1.176-.321h-25.112c-.484 0-.806.321-.806.321s-.42.37-.645 1.014l-5.706 12.15c-.097.305-.306.418-.306.418s-.435.112-.645.112h-21.76c-.531.097-.692-.225-.692-.225s-.097-.209.16-.644l38.346-76.338c.21-.097.419-.435.419-.435s.226-.096.854-.096h23.742c.532 0 .838.321.838.321s.113.113.226.419l15.94 76.66c0 .226-.112.338-.112.338s0 .097-.306.097m-90.504-.097h-19.938s-.064-.112-.177-.225l-26.82-47.486c-.21-.21-.307-.21-.307-.21s-.225 0-.225.306l-6.657 46.65c-.113.531-.226.628-.226.628s-.21.112-.532.112h-19.196c-.307 0-.532-.209-.532-.209s-.42-.435-.258-.853l10.493-75.486c.113-.434.338-.53.338-.53s.306-.339.629-.339h21.437c.322 0 .532.225.532.225s.21.113.322.419L566.7 475.76c.42.837.742.74.742.74s.322 0 .532-.965l6.092-42.112c0-.306.194-.419.194-.419s.112-.225.435-.225l20.147.225c.436 0 .548.113.548.113s.097.097.097.306l-10.88 76.13c-.112.434-.306.756-.306.756s-.113.112-.645.112m-84.426-.225-18.762.113c-.435 0-.741-.225-.741-.225s-.113-.097-.226-.837l-2.933-12.15c0-.257-.194-.37-.194-.37h-26.836c-.532 0-.855.37-.855.37s-.419.322-.741 1.063l-5.287 11.296c-.21.434-.322.531-.322.531s-.306.21-.58.21h-21.857c-.644.112-.757-.21-.757-.21s-.113-.322.113-.74l37.91-76.033c.16-.435.483-.531.483-.531h24.903c.435 0 .74.321.74.321.001 0 .114.113.227.419l16.247 76.242c0 .322-.194.419-.194.419s-.113.112-.338.112m143.145-55.516s-.113 0-.226.418l-10.541 23.8c-.226.74-.113.853-.113.853s.306.209.532.209l15.618-.113h.21s.113-.096 0-.418l-5.27-24.443c-.097-.306-.21-.306-.21-.306m-175.188.306s-.097 0-.21.225l-10.557 23.896c-.21.322-.113.531-.113.531s.113.113.645.113l15.506.096a.19.19 0 0 0 .16-.096s.114-.113 0-.435l-5.334-24.105c0-.225-.097-.225-.097-.225m-54.06 52.555c-.113.837-.532 1.48-.532 1.48s-.451.435-1.128.644c-10.187 4.104-21.454 2.72-21.454 2.72-18.278-1.964-29.85-13.163-33.59-27.581-5.496-21.612 5.4-36.947 8.06-40.246 6.398-7.675 16.424-13.147 26.288-14.434 12.54-1.754 21.824 1.175 25.66 2.462 0 0 4.207 1.32 7.35 3.46 1.596 1.062 1.821 1.48 1.821 1.48s.097.226-.338 1.867l-2.966 15.48c-.113.644-.5.966-.5.966s-.21.112-1.708-.853c-9.478-6.71-20.567-5.906-20.567-5.906-8.43.531-18.294 4.956-21.227 16.124-2.612 9.912.112 18.216 6.012 23.156 4.013 3.524 10.25 5.278 16.81 4.972 7.141-.53 12.847-3.363 12.428-3.154 0 0 .306-.112.645-.209 1.482-.74 1.805-.644 1.805-.644s.322.322.097 1.288z" style="fill:#fff;fill-rule:nonzero;stroke:none" transform="translate(-332.745 -410.91)"/><path d="M942.38 142.458h2.382z" style="fill:#000;fill-rule:nonzero;stroke:none" transform="translate(-332.745 -410.91)"/><path d="M944.762 141.565v.248z" style="fill:#de6a06;fill-rule:nonzero;stroke:none" transform="translate(-332.745 -410.91)"/></svg>