<svg xmlns="http://www.w3.org/2000/svg" xml:space="preserve" data-ember-extension="1" viewBox="0 0 644.3 162.8"><path d="M0 0h644.3v162.8H0z"/><path fill="#FC0001" d="M160 9.5h474.5v144H160z"/><path fill="#FFF" d="m126 31.5-4.7 28.6c-4-3.4-8.3-6.1-13-7.8-4.7-1.8-9.5-2.7-14.6-2.7-8.6 0-15.7 3-21.2 9-5.6 6-8.4 13.6-8.4 22.9 0 8.4 2.3 14.9 7 19.5q7.05 6.9 19.8 6.9c3.7 0 7.5-.4 11.4-1.3s8-2.2 12.3-4l-4.3 26.8c-3.5 1.1-7.4 2-11.7 2.6q-6.45.9-13.8.9c-14.8 0-26.6-4.6-35.5-13.7C40.4 110 36 97.9 36 82.7c0-7.3 1.1-14.3 3.4-20.9s5.7-12.7 10.1-18.1c5.2-6.3 11.7-11.2 19.4-14.5 7.8-3.4 16.5-5 26.1-5q8.25 0 15.9 1.8c5.1 1.2 10.1 3 15.1 5.5"/><g fill="#FFF"><path d="M189.7 131.9V26.8h27.6s48.1 63.2 48 61c-.3-3.4-.4-6.5-.4-9.1V26.8h27.5v105.1h-27.5S215.9 63.2 216 68c.5 19.4 1.3 63.9 1.3 63.9zM312.5 131.8V26.7h58.8v23.1H338V68h31.4v22.6H338v17.7h33.3v23.5zM470 26.7l14.1 50c.6 2 1.3 4.4 1.9 7 .2 1 .5 2.3.8 4.1.4 1.8.6 3.2.8 4.3.7-3.1 1.4-6.2 1.9-9.3.3-1.5.8-3.5 1.6-6.2l13.2-50h30.9l-31.8 105.1H475l-13.9-44.9c-1-3.3-1.8-6.4-2.5-9.3-.1-.3-.2-.9-.5-1.7-.3-.9-.5-1.9-.8-3.1-.1.3-.5 1.7-1.1 4.2-.9 3.8-1.8 7.1-2.7 9.8l-13.7 44.9h-28.5L380 26.7h30.9l12.9 50.2q.6 2.55 1.8 7.8c.8 3.7 1.4 6.4 1.6 7.9q1.05-4.5 1.5-6.3c.9-3.9 1.7-7.1 2.4-9.4l14.1-50.2zM547.3 97.8c4.3 4.9 8.5 8.5 12.4 10.8 4.1 2.4 8.2 3.6 12.1 3.6 3.7 0 6.8-1 9.2-3.1s3.7-4.7 3.7-7.8q0-5.1-3-8.1c-2.2-1.9-6.9-3.8-14.3-5.8-10.1-2.8-17.2-6.4-21.4-10.8-4.2-4.5-6.3-10.6-6.3-18.4 0-10 3.3-18.2 10-24.5 6.5-6.4 15.1-9.5 25.7-9.5q9 0 16.2 2.4c5.1 1.6 9.9 3.9 14.5 7l-8.9 20.6q-4.65-4.05-9.9-6.3-5.1-2.1-9.9-2.1c-3.3 0-6 .8-8.3 2.5-2.1 1.6-3.2 3.7-3.2 6.3 0 2.5.9 4.6 2.8 6.3 1.9 1.6 5.6 3.1 10.9 4.5.2 0 .4.1.5.1s.4.1.6.2q17.25 4.65 22.8 10.5 3.6 3.6 5.7 9.3c1.2 3.5 1.8 7.6 1.8 12.1 0 11.1-3.6 20.1-10.8 26.9-7.3 6.7-16.9 10.1-28.8 10.1-7.3 0-13.9-1.2-19.7-3.7-5.8-2.4-11.5-6.4-17.1-11.8z"/></g></svg>