<svg xmlns="http://www.w3.org/2000/svg" xml:space="preserve" width="1000" height="866.895" data-ember-extension="1"><path fill="#131313" d="M432.454 866.906V745.365l300.501-316.676c33.386-37.364 55.756-69.16 67.086-95.387s16.995-50.284 16.995-72.148c0-14.704-2.893-28.927-8.654-42.619-5.762-13.716-13.524-25.937-23.262-36.664s-21.262-19.285-34.592-25.649c-13.306-6.364-28.131-9.546-44.427-9.546-28.613 0-52.863 8.944-72.727 26.83-19.863 17.886-36.76 47.585-36.76 100.665H431.874c0-74.824 29-132.557 46.476-157s38.063-45.222 61.71-62.313c23.648-17.091 49.682-30.518 78.103-40.233Q660.794.018 708.488.017c36.568 0 71.353 6.46 104.33 19.381 33 12.921 62.095 31 87.334 54.262s45.222 51.177 59.927 83.767c14.704 32.591 22.056 67.978 22.056 106.138 0 52.068-11.233 97.869-33.675 137.426-22.467 39.558-47.995 75.62-76.608 108.21L667.58 720.272h332.418V866.93z"/><path fill="#EB0032" d="M330.342 570.213c0 91.216-73.956 165.172-165.172 165.172S-.002 661.429-.002 570.213 73.954 405.041 165.17 405.041c91.24 0 165.172 73.956 165.172 165.172"/></svg>