<svg xmlns="http://www.w3.org/2000/svg" xml:space="preserve" data-ember-extension="1" viewBox="0 0 248 211.8"><circle cx="39.5" cy="136.5" r="39.5" style="fill:#00d282"/><path d="M220.9 82.5c-6.3-5-21.1-16.6-48.6-16.3-8.9.1-15.4 1.4-19.4 2.4l3.3-32.8h77.6V0H123.4L110 110.7l28.8 2.9c10.8-8.9 22.4-11.4 30.7-11.4 9.5-.1 18.7 2.7 25.4 8.4 7.5 6.5 12.8 15.5 12.8 27.5 0 22.4-19.4 37.9-39.1 37.9-15.8 0-30.1-8.7-38.8-20.9l-28.9 24.2c18.5 20.9 43.3 32.5 69.2 32.5 43.3 0 77.9-29.5 77.9-73.7 0-22.9-10.4-42.5-27.1-55.6" style="fill:#232323"/></svg>