<svg xmlns="http://www.w3.org/2000/svg" xml:space="preserve" width="1000" height="853.895" data-ember-extension="1"><path fill="#0082FC" d="M322.251 550.823c0 88.987-72.138 161.126-161.125 161.126S.001 639.81.001 550.823c0-88.986 72.138-161.125 161.125-161.125s161.125 72.139 161.125 161.125"/><path fill="#131313" d="m406.875 722.92 116.876-97.481c17.62 24.656 40.021 44.922 67.233 60.768s56.86 23.784 88.972 23.784c19.966 0 39.45-3.819 58.423-11.456 19.003-7.637 35.842-18.101 50.515-31.421s26.43-29.377 35.24-48.17 13.2-39.36 13.2-61.67c0-21.53-4.21-41.795-12.629-60.768s-19.965-35.541-34.638-49.613-32.294-24.957-52.86-32.594-42.397-11.456-65.49-11.456c-35.24 0-68.916 8.028-101 24.084V331.19l157.379-186.755h-281.29V-.043h510.922v96.309L805.04 284.193c57.55 22.31 104.427 57.37 140.66 105.119 36.202 47.779 54.333 103.766 54.333 167.962 0 45.012-8.239 85.755-24.656 122.137q-24.671 54.62-66.662 93.092c-27.993 25.648-61.279 45.614-99.827 59.896s-79.56 21.44-123.04 21.44c-52.86 0-103.164-11.156-150.943-33.467-47.778-22.28-90.475-54.755-128.03-97.452"/></svg>