<svg xmlns="http://www.w3.org/2000/svg" data-ember-extension="1" viewBox="0 0 763.33 572.5"><path d="M0 572.5 95.42 0l286.25 286.25L667.92 0l95.41 572.5H572.5l-27.26-163.57L381.67 572.5 218.09 408.93 190.83 572.5z" style="fill:#d2d2d2"/><path d="M388.19 114.56C415.08 68.38 442 25.53 460.13.07H340.32c-49.95 70.15-109.6 171-126.1 242.13a172.7 172.7 0 0 0-5.84 44.42c0 95 77.94 172.31 173.71 172.31s173.73-77.29 173.73-172.31c0-92.07-75.01-168.82-167.63-172.06m69.18 172.06a75.57 75.57 0 1 1-75.56-75.35 75.53 75.53 0 0 1 75.56 75.35" style="fill:#e61e1e"/></svg>