<svg xmlns="http://www.w3.org/2000/svg" xmlns:xlink="http://www.w3.org/1999/xlink" width="1000" height="366.098" data-ember-extension="1"><defs><linearGradient id="b"><stop offset="0" style="stop-color:#fa4700;stop-opacity:1"/><stop offset=".1" style="stop-color:#fe5e25;stop-opacity:1"/><stop offset=".2" style="stop-color:#fd6f34;stop-opacity:1"/><stop offset=".3" style="stop-color:#ff743e;stop-opacity:1"/><stop offset=".4" style="stop-color:#fe763f;stop-opacity:1"/><stop offset=".5" style="stop-color:#ff7239;stop-opacity:1"/><stop offset=".6" style="stop-color:#fe6d31;stop-opacity:1"/><stop offset=".7" style="stop-color:#ff6526;stop-opacity:1"/><stop offset=".8" style="stop-color:#fe5c1a;stop-opacity:1"/><stop offset=".9" style="stop-color:#fe530e;stop-opacity:1"/><stop offset="1" style="stop-color:#ff4700;stop-opacity:1"/></linearGradient><linearGradient id="a"><stop offset="0" style="stop-color:#fa4700;stop-opacity:1"/><stop offset=".1" style="stop-color:#fe4a00;stop-opacity:1"/><stop offset=".2" style="stop-color:#fe4a00;stop-opacity:1"/><stop offset=".3" style="stop-color:#fe4a00;stop-opacity:1"/><stop offset=".4" style="stop-color:#fe4a00;stop-opacity:1"/><stop offset=".5" style="stop-color:#fe4a00;stop-opacity:1"/><stop offset=".6" style="stop-color:#fe4a00;stop-opacity:1"/><stop offset=".7" style="stop-color:#fe4a00;stop-opacity:1"/><stop offset=".8" style="stop-color:#fe4a00;stop-opacity:1"/><stop offset=".9" style="stop-color:#fe4a00;stop-opacity:1"/><stop offset="1" style="stop-color:#ff4700;stop-opacity:1"/></linearGradient><linearGradient xlink:href="#a" id="d" x1="283.805" x2="843.965" y1="1840.918" y2="1840.918" gradientTransform="matrix(1.78571 0 0 1.78571 -223.143 -1448.368)" gradientUnits="userSpaceOnUse"/><linearGradient xlink:href="#b" id="c" x1="284.88" x2="844.069" y1="1645.987" y2="1645.987" gradientTransform="matrix(1.78571 0 0 1.78571 -223.143 -1448.368)" gradientUnits="userSpaceOnUse"/></defs><path d="M284 1711.208v-233.929h1000v107.143l-324.76 185.714H410.786z" style="fill:url(#c);fill-opacity:1;fill-rule:evenodd;stroke:none" transform="translate(-284 -1477.28)"/><path d="M284 1843.376v-132.142s383.978-132.169 853.759-132.169c78.491 0 146.241 5.383 146.241 5.383v258.928z" style="fill:url(#d);fill-opacity:1;stroke:none" transform="translate(-284 -1477.28)"/><path d="M776.157 1786.798v-61.448h70.62v-87.18h-70.62v-18.35h107.045v-87.183H670.415v254.161zM387.571 1619.82h72.59v166.978h105.738V1619.82h72.59v-87.183H387.57ZM1174.05 1786.797h-123.831L902.242 1532.64h123.83zM1037.38 1786.797H894.592l71.395-122.39zM1038.914 1532.946H1181.7l-71.388 122.379z" style="fill:#fff;stroke:none;stroke-width:16.8163" transform="translate(-284 -1477.28)"/></svg>