<svg xmlns="http://www.w3.org/2000/svg" xml:space="preserve" data-ember-extension="1" viewBox="0 0 700 253"><path d="M0 0v253h700V0z"/><linearGradient id="a" x1="-338.71" x2="-68.632" y1="404.262" y2="401.95" gradientTransform="matrix(2.5473 0 0 2.4689 872.832 -901.615)" gradientUnits="userSpaceOnUse"><stop offset="0" style="stop-color:#000"/><stop offset=".284" style="stop-color:#5c5c5a"/><stop offset=".397" style="stop-color:#737371"/><stop offset=".496" style="stop-color:#5e5e5c"/><stop offset=".686" style="stop-color:#3c3c3c"/><stop offset="1" style="stop-color:#000"/></linearGradient><path d="M0 0v193.1c16.4-6.6 32.8-13 49.3-19.1 17.8-6.6 35.6-12.9 53.5-18.9 17.8-6 35.6-11.7 53.4-17.2s35.6-10.6 53.3-15.5c17.8-4.9 35.5-9.6 53.3-14 17.7-4.4 35.5-8.6 53.2-12.6s35.4-7.8 53.1-11.4c35.4-7.2 70.8-13.7 106.1-19.5 35.3-5.9 70.6-11.1 105.9-16s70.5-9.3 105.6-13.4c4.5-.5 8.9-1 13.4-1.5V0z" style="fill:url(#a)"/><path d="M217 38.2H77.8c-11.8 0-21.3 9.3-21.3 20.7 0 11.5 9.5 20.7 21.3 20.7h48.3v135.2h42.5V79.7h48.3c11.8 0 21.3-9.3 21.3-20.7.1-11.5-9.4-20.8-21.2-20.8m392.2 116.3c-8.1 10.6-20.9 17.8-35.5 18.6-26.3 1.4-48.8-18.3-50.2-44s18.7-47.6 45-49.1c14.6-.8 28.1 5 37.5 14.6.4.4.9.8 1.3 1.3 8.7 7.6 22.2 7 30-1.6 7.4-8.1 7.2-20.3-.3-28.1-17.6-18.4-43.2-29.3-70.9-27.9-49.9 2.7-88.1 44.3-85.4 93s45.4 86 95.3 83.4c27.8-1.5 51.9-15 67.5-35.2zM450.2 43c-9-7.4-22.4-6.2-30 2.5l-63.9 74.4-64-74.4c-7.6-8.8-21-9.9-30-2.5-5 4.1-7.6 10-7.6 15.9v155.9h42.5V116l42.6 49.6.1.1c3.9 4.5 9.7 7.4 16.3 7.4s12.3-2.9 16.3-7.4l42.7-49.7v98.9h42.5V59c.2-6-2.4-11.9-7.5-16" style="fill:#fff"/></svg>